<svg xmlns="http://www.w3.org/2000/svg" width="79.818" height="64.914" viewBox="0 0 79.818 64.914">
  <g id="appointment" transform="translate(0 -47.801)">
    <path id="Path_104" data-name="Path 104" d="M195.415,127.6a20.017,20.017,0,1,0,20.017,20.017A20.04,20.04,0,0,0,195.415,127.6Zm9.439,22.356H193.077V133.539h4.677v11.737h7.1Z" transform="translate(-148.054 -67.357)" fill="#b80000"/>
    <path id="Path_105" data-name="Path 105" d="M47.45,47.8a32.309,32.309,0,0,0-19.069,6.127h-17.7a5.052,5.052,0,1,0,0,10.1h8.563a32.253,32.253,0,0,0-3.574,9.186H5.052a5.052,5.052,0,0,0,0,10.1h10A32.253,32.253,0,0,0,17.3,92.509H13.689a5.052,5.052,0,1,0,0,10.1H23.831A32.457,32.457,0,1,0,47.45,47.8Zm-.089,57.151A24.694,24.694,0,1,1,72.055,80.258a24.722,24.722,0,0,1-24.694,24.694Z" fill="#b80000"/>
  </g>
</svg>
