<svg xmlns="http://www.w3.org/2000/svg" xmlns:xlink="http://www.w3.org/1999/xlink" width="186" height="112" viewBox="0 0 186 112">
  <defs>
    <clipPath id="clip-path">
      <rect width="112" height="186" fill="none"/>
    </clipPath>
  </defs>
  <g id="Group_16" data-name="Group 16" transform="translate(375.504 39) rotate(90)">
    <g id="Repeat_Grid_1" data-name="Repeat Grid 1" transform="translate(-39 189.504)" clip-path="url(#clip-path)">
      <g transform="translate(-762 -51)">
        <circle id="Ellipse_9" data-name="Ellipse 9" cx="3" cy="3" r="3" transform="translate(762 51)" fill="#979797"/>
      </g>
      <g transform="translate(-733 -51)">
        <circle id="Ellipse_9-2" data-name="Ellipse 9" cx="3" cy="3" r="3" transform="translate(762 51)" fill="#979797"/>
      </g>
      <g transform="translate(-704 -51)">
        <circle id="Ellipse_9-3" data-name="Ellipse 9" cx="3" cy="3" r="3" transform="translate(762 51)" fill="#979797"/>
      </g>
      <g transform="translate(-675 -51)">
        <circle id="Ellipse_9-4" data-name="Ellipse 9" cx="3" cy="3" r="3" transform="translate(762 51)" fill="#979797"/>
      </g>
      <g transform="translate(-762 -30)">
        <circle id="Ellipse_9-5" data-name="Ellipse 9" cx="3" cy="3" r="3" transform="translate(762 51)" fill="#979797"/>
      </g>
      <g transform="translate(-733 -30)">
        <circle id="Ellipse_9-6" data-name="Ellipse 9" cx="3" cy="3" r="3" transform="translate(762 51)" fill="#979797"/>
      </g>
      <g transform="translate(-704 -30)">
        <circle id="Ellipse_9-7" data-name="Ellipse 9" cx="3" cy="3" r="3" transform="translate(762 51)" fill="#979797"/>
      </g>
      <g transform="translate(-675 -30)">
        <circle id="Ellipse_9-8" data-name="Ellipse 9" cx="3" cy="3" r="3" transform="translate(762 51)" fill="#979797"/>
      </g>
      <g transform="translate(-762 -9)">
        <circle id="Ellipse_9-9" data-name="Ellipse 9" cx="3" cy="3" r="3" transform="translate(762 51)" fill="#979797"/>
      </g>
      <g transform="translate(-733 -9)">
        <circle id="Ellipse_9-10" data-name="Ellipse 9" cx="3" cy="3" r="3" transform="translate(762 51)" fill="#979797"/>
      </g>
      <g transform="translate(-704 -9)">
        <circle id="Ellipse_9-11" data-name="Ellipse 9" cx="3" cy="3" r="3" transform="translate(762 51)" fill="#979797"/>
      </g>
      <g transform="translate(-675 -9)">
        <circle id="Ellipse_9-12" data-name="Ellipse 9" cx="3" cy="3" r="3" transform="translate(762 51)" fill="#979797"/>
      </g>
      <g transform="translate(-762 12)">
        <circle id="Ellipse_9-13" data-name="Ellipse 9" cx="3" cy="3" r="3" transform="translate(762 51)" fill="#979797"/>
      </g>
      <g transform="translate(-733 12)">
        <circle id="Ellipse_9-14" data-name="Ellipse 9" cx="3" cy="3" r="3" transform="translate(762 51)" fill="#979797"/>
      </g>
      <g transform="translate(-704 12)">
        <circle id="Ellipse_9-15" data-name="Ellipse 9" cx="3" cy="3" r="3" transform="translate(762 51)" fill="#979797"/>
      </g>
      <g transform="translate(-675 12)">
        <circle id="Ellipse_9-16" data-name="Ellipse 9" cx="3" cy="3" r="3" transform="translate(762 51)" fill="#979797"/>
      </g>
      <g transform="translate(-762 33)">
        <circle id="Ellipse_9-17" data-name="Ellipse 9" cx="3" cy="3" r="3" transform="translate(762 51)" fill="#979797"/>
      </g>
      <g transform="translate(-733 33)">
        <circle id="Ellipse_9-18" data-name="Ellipse 9" cx="3" cy="3" r="3" transform="translate(762 51)" fill="#979797"/>
      </g>
      <g transform="translate(-704 33)">
        <circle id="Ellipse_9-19" data-name="Ellipse 9" cx="3" cy="3" r="3" transform="translate(762 51)" fill="#979797"/>
      </g>
      <g transform="translate(-675 33)">
        <circle id="Ellipse_9-20" data-name="Ellipse 9" cx="3" cy="3" r="3" transform="translate(762 51)" fill="#979797"/>
      </g>
      <g transform="translate(-762 54)">
        <circle id="Ellipse_9-21" data-name="Ellipse 9" cx="3" cy="3" r="3" transform="translate(762 51)" fill="#979797"/>
      </g>
      <g transform="translate(-733 54)">
        <circle id="Ellipse_9-22" data-name="Ellipse 9" cx="3" cy="3" r="3" transform="translate(762 51)" fill="#979797"/>
      </g>
      <g transform="translate(-704 54)">
        <circle id="Ellipse_9-23" data-name="Ellipse 9" cx="3" cy="3" r="3" transform="translate(762 51)" fill="#979797"/>
      </g>
      <g transform="translate(-675 54)">
        <circle id="Ellipse_9-24" data-name="Ellipse 9" cx="3" cy="3" r="3" transform="translate(762 51)" fill="#979797"/>
      </g>
      <g transform="translate(-762 75)">
        <circle id="Ellipse_9-25" data-name="Ellipse 9" cx="3" cy="3" r="3" transform="translate(762 51)" fill="#979797"/>
      </g>
      <g transform="translate(-733 75)">
        <circle id="Ellipse_9-26" data-name="Ellipse 9" cx="3" cy="3" r="3" transform="translate(762 51)" fill="#979797"/>
      </g>
      <g transform="translate(-704 75)">
        <circle id="Ellipse_9-27" data-name="Ellipse 9" cx="3" cy="3" r="3" transform="translate(762 51)" fill="#979797"/>
      </g>
      <g transform="translate(-675 75)">
        <circle id="Ellipse_9-28" data-name="Ellipse 9" cx="3" cy="3" r="3" transform="translate(762 51)" fill="#979797"/>
      </g>
      <g transform="translate(-762 96)">
        <circle id="Ellipse_9-29" data-name="Ellipse 9" cx="3" cy="3" r="3" transform="translate(762 51)" fill="#979797"/>
      </g>
      <g transform="translate(-733 96)">
        <circle id="Ellipse_9-30" data-name="Ellipse 9" cx="3" cy="3" r="3" transform="translate(762 51)" fill="#979797"/>
      </g>
      <g transform="translate(-704 96)">
        <circle id="Ellipse_9-31" data-name="Ellipse 9" cx="3" cy="3" r="3" transform="translate(762 51)" fill="#979797"/>
      </g>
      <g transform="translate(-675 96)">
        <circle id="Ellipse_9-32" data-name="Ellipse 9" cx="3" cy="3" r="3" transform="translate(762 51)" fill="#979797"/>
      </g>
      <g transform="translate(-762 117)">
        <circle id="Ellipse_9-33" data-name="Ellipse 9" cx="3" cy="3" r="3" transform="translate(762 51)" fill="#979797"/>
      </g>
      <g transform="translate(-733 117)">
        <circle id="Ellipse_9-34" data-name="Ellipse 9" cx="3" cy="3" r="3" transform="translate(762 51)" fill="#979797"/>
      </g>
      <g transform="translate(-704 117)">
        <circle id="Ellipse_9-35" data-name="Ellipse 9" cx="3" cy="3" r="3" transform="translate(762 51)" fill="#979797"/>
      </g>
      <g transform="translate(-675 117)">
        <circle id="Ellipse_9-36" data-name="Ellipse 9" cx="3" cy="3" r="3" transform="translate(762 51)" fill="#979797"/>
      </g>
    </g>
  </g>
</svg>
