<svg xmlns="http://www.w3.org/2000/svg" width="26.302" height="25" viewBox="0 0 26.302 25">
  <g id="home-icon-fill" transform="translate(0 -12.675)">
    <g id="Group_2" data-name="Group 2" transform="translate(0 12.675)">
      <g id="Group_1" data-name="Group 1" transform="translate(0 0)">
        <path id="Path_1" data-name="Path 1" d="M25.861,23.783,14.06,13.03a1.343,1.343,0,0,0-1.817,0L.442,23.783a1.349,1.349,0,0,0,.909,2.346H3.235V36.9a.774.774,0,0,0,.774.773h6.468a.774.774,0,0,0,.774-.773V30.36h3.8V36.9a.774.774,0,0,0,.774.774h6.468a.774.774,0,0,0,.774-.774V26.128h1.885a1.349,1.349,0,0,0,.908-2.346Z" transform="translate(0 -12.675)" fill="#fff"/>
      </g>
    </g>
    <g id="Group_4" data-name="Group 4" transform="translate(17.594 14.233)">
      <g id="Group_3" data-name="Group 3" transform="translate(0 0)">
        <path id="Path_2" data-name="Path 2" d="M349.213,42.73h-5.24l6.021,5.474V43.51A.78.78,0,0,0,349.213,42.73Z" transform="translate(-343.973 -42.73)" fill="#fff"/>
      </g>
    </g>
  </g>
</svg>
