<svg xmlns="http://www.w3.org/2000/svg" width="47.949" height="63.932" viewBox="0 0 47.949 63.932">
  <g id="list" transform="translate(-64)">
    <g id="Group_29" data-name="Group 29" transform="translate(75.987)">
      <g id="Group_28" data-name="Group 28">
        <path id="Path_102" data-name="Path 102" d="M181.977,4h-4.339a6,6,0,0,0-11.3,0H162a2,2,0,0,0-2,2v7.992a2,2,0,0,0,2,2h19.979a2,2,0,0,0,2-2V5.994A2,2,0,0,0,181.977,4Z" transform="translate(-160)" fill="#b80000"/>
      </g>
    </g>
    <g id="Group_31" data-name="Group 31" transform="translate(64 7.992)">
      <g id="Group_30" data-name="Group 30">
        <path id="Path_103" data-name="Path 103" d="M107.953,64h-4v5.994a6,6,0,0,1-5.994,5.994H77.985a6,6,0,0,1-5.994-5.994V64H68a4,4,0,0,0-4,4v47.949a3.952,3.952,0,0,0,4,4h39.958a3.952,3.952,0,0,0,4-4V68A3.952,3.952,0,0,0,107.953,64ZM87.391,99.379,79.4,107.37a2.007,2.007,0,0,1-2.829,0l-4-4a2,2,0,0,1,2.825-2.825l2.585,2.581,6.577-6.577a2,2,0,0,1,2.829,2.825Zm0-15.983L79.4,91.387a2.007,2.007,0,0,1-2.829,0l-4-4A2,2,0,0,1,75.4,84.566l2.585,2.581,6.577-6.577A2,2,0,0,1,87.391,83.4Zm14.569,20.562H93.968a2,2,0,1,1,0-4h7.992a2,2,0,0,1,0,4Zm0-15.983H93.968a2,2,0,1,1,0-4h7.992a2,2,0,0,1,0,4Z" transform="translate(-64 -64)" fill="#b80000"/>
      </g>
    </g>
  </g>
</svg>
