<svg xmlns="http://www.w3.org/2000/svg" width="59.345" height="64.738" viewBox="0 0 59.345 64.738">
  <g id="notification-fill" transform="translate(0.001)">
    <path id="Path_14" data-name="Path 14" d="M144.875,456.092a10.131,10.131,0,0,0,9.91-8.092H134.965a10.132,10.132,0,0,0,9.91,8.092Zm0,0" transform="translate(-117.901 -391.354)" fill="#b80000"/>
    <path id="Path_15" data-name="Path 15" d="M45.889,69.639l-.033,0A18.9,18.9,0,0,1,26.975,50.76a18.714,18.714,0,0,1,1.8-8c-.594-.056-1.2-.091-1.8-.091A18.882,18.882,0,0,0,8.093,61.549v7.52A18.087,18.087,0,0,1,1.651,82.916,4.72,4.72,0,0,0,.168,87.761a4.948,4.948,0,0,0,4.85,3.461h43.9a4.945,4.945,0,0,0,4.931-3.741,4.728,4.728,0,0,0-1.61-4.618,17.949,17.949,0,0,1-6.35-13.223Zm0,0" transform="translate(0 -37.273)" fill="#b80000"/>
    <path id="Path_16" data-name="Path 16" d="M282.986,13.487A13.487,13.487,0,1,1,269.5,0,13.487,13.487,0,0,1,282.986,13.487Zm0,0" transform="translate(-223.642 0)" fill="#b80000"/>
  </g>
</svg>
