<svg xmlns="http://www.w3.org/2000/svg" xmlns:xlink="http://www.w3.org/1999/xlink" width="153" height="284" viewBox="0 0 153 284">
  <defs>
    <clipPath id="clip-path">
      <rect width="284" height="153" fill="none"/>
    </clipPath>
  </defs>
  <g id="Group_32" data-name="Group 32" transform="translate(338 39) rotate(90)">
    <g id="Repeat_Grid_1" data-name="Repeat Grid 1" transform="translate(-39 185)" opacity="0.17" clip-path="url(#clip-path)">
      <g transform="translate(-762 -51)">
        <circle id="Ellipse_9" data-name="Ellipse 9" cx="3" cy="3" r="3" transform="translate(762 51)"/>
      </g>
      <g transform="translate(-733 -51)">
        <circle id="Ellipse_9-2" data-name="Ellipse 9" cx="3" cy="3" r="3" transform="translate(762 51)"/>
      </g>
      <g transform="translate(-704 -51)">
        <circle id="Ellipse_9-3" data-name="Ellipse 9" cx="3" cy="3" r="3" transform="translate(762 51)"/>
      </g>
      <g transform="translate(-675 -51)">
        <circle id="Ellipse_9-4" data-name="Ellipse 9" cx="3" cy="3" r="3" transform="translate(762 51)"/>
      </g>
      <g transform="translate(-646 -51)">
        <circle id="Ellipse_9-5" data-name="Ellipse 9" cx="3" cy="3" r="3" transform="translate(762 51)"/>
      </g>
      <g transform="translate(-617 -51)">
        <circle id="Ellipse_9-6" data-name="Ellipse 9" cx="3" cy="3" r="3" transform="translate(762 51)"/>
      </g>
      <g transform="translate(-588 -51)">
        <circle id="Ellipse_9-7" data-name="Ellipse 9" cx="3" cy="3" r="3" transform="translate(762 51)"/>
      </g>
      <g transform="translate(-559 -51)">
        <circle id="Ellipse_9-8" data-name="Ellipse 9" cx="3" cy="3" r="3" transform="translate(762 51)"/>
      </g>
      <g transform="translate(-530 -51)">
        <circle id="Ellipse_9-9" data-name="Ellipse 9" cx="3" cy="3" r="3" transform="translate(762 51)"/>
      </g>
      <g transform="translate(-501 -51)">
        <circle id="Ellipse_9-10" data-name="Ellipse 9" cx="3" cy="3" r="3" transform="translate(762 51)"/>
      </g>
      <g transform="translate(-762 -30)">
        <circle id="Ellipse_9-11" data-name="Ellipse 9" cx="3" cy="3" r="3" transform="translate(762 51)"/>
      </g>
      <g transform="translate(-733 -30)">
        <circle id="Ellipse_9-12" data-name="Ellipse 9" cx="3" cy="3" r="3" transform="translate(762 51)"/>
      </g>
      <g transform="translate(-704 -30)">
        <circle id="Ellipse_9-13" data-name="Ellipse 9" cx="3" cy="3" r="3" transform="translate(762 51)"/>
      </g>
      <g transform="translate(-675 -30)">
        <circle id="Ellipse_9-14" data-name="Ellipse 9" cx="3" cy="3" r="3" transform="translate(762 51)"/>
      </g>
      <g transform="translate(-646 -30)">
        <circle id="Ellipse_9-15" data-name="Ellipse 9" cx="3" cy="3" r="3" transform="translate(762 51)"/>
      </g>
      <g transform="translate(-617 -30)">
        <circle id="Ellipse_9-16" data-name="Ellipse 9" cx="3" cy="3" r="3" transform="translate(762 51)"/>
      </g>
      <g transform="translate(-588 -30)">
        <circle id="Ellipse_9-17" data-name="Ellipse 9" cx="3" cy="3" r="3" transform="translate(762 51)"/>
      </g>
      <g transform="translate(-559 -30)">
        <circle id="Ellipse_9-18" data-name="Ellipse 9" cx="3" cy="3" r="3" transform="translate(762 51)"/>
      </g>
      <g transform="translate(-530 -30)">
        <circle id="Ellipse_9-19" data-name="Ellipse 9" cx="3" cy="3" r="3" transform="translate(762 51)"/>
      </g>
      <g transform="translate(-501 -30)">
        <circle id="Ellipse_9-20" data-name="Ellipse 9" cx="3" cy="3" r="3" transform="translate(762 51)"/>
      </g>
      <g transform="translate(-762 -9)">
        <circle id="Ellipse_9-21" data-name="Ellipse 9" cx="3" cy="3" r="3" transform="translate(762 51)"/>
      </g>
      <g transform="translate(-733 -9)">
        <circle id="Ellipse_9-22" data-name="Ellipse 9" cx="3" cy="3" r="3" transform="translate(762 51)"/>
      </g>
      <g transform="translate(-704 -9)">
        <circle id="Ellipse_9-23" data-name="Ellipse 9" cx="3" cy="3" r="3" transform="translate(762 51)"/>
      </g>
      <g transform="translate(-675 -9)">
        <circle id="Ellipse_9-24" data-name="Ellipse 9" cx="3" cy="3" r="3" transform="translate(762 51)"/>
      </g>
      <g transform="translate(-646 -9)">
        <circle id="Ellipse_9-25" data-name="Ellipse 9" cx="3" cy="3" r="3" transform="translate(762 51)"/>
      </g>
      <g transform="translate(-617 -9)">
        <circle id="Ellipse_9-26" data-name="Ellipse 9" cx="3" cy="3" r="3" transform="translate(762 51)"/>
      </g>
      <g transform="translate(-588 -9)">
        <circle id="Ellipse_9-27" data-name="Ellipse 9" cx="3" cy="3" r="3" transform="translate(762 51)"/>
      </g>
      <g transform="translate(-559 -9)">
        <circle id="Ellipse_9-28" data-name="Ellipse 9" cx="3" cy="3" r="3" transform="translate(762 51)"/>
      </g>
      <g transform="translate(-530 -9)">
        <circle id="Ellipse_9-29" data-name="Ellipse 9" cx="3" cy="3" r="3" transform="translate(762 51)"/>
      </g>
      <g transform="translate(-501 -9)">
        <circle id="Ellipse_9-30" data-name="Ellipse 9" cx="3" cy="3" r="3" transform="translate(762 51)"/>
      </g>
      <g transform="translate(-762 12)">
        <circle id="Ellipse_9-31" data-name="Ellipse 9" cx="3" cy="3" r="3" transform="translate(762 51)"/>
      </g>
      <g transform="translate(-733 12)">
        <circle id="Ellipse_9-32" data-name="Ellipse 9" cx="3" cy="3" r="3" transform="translate(762 51)"/>
      </g>
      <g transform="translate(-704 12)">
        <circle id="Ellipse_9-33" data-name="Ellipse 9" cx="3" cy="3" r="3" transform="translate(762 51)"/>
      </g>
      <g transform="translate(-675 12)">
        <circle id="Ellipse_9-34" data-name="Ellipse 9" cx="3" cy="3" r="3" transform="translate(762 51)"/>
      </g>
      <g transform="translate(-646 12)">
        <circle id="Ellipse_9-35" data-name="Ellipse 9" cx="3" cy="3" r="3" transform="translate(762 51)"/>
      </g>
      <g transform="translate(-617 12)">
        <circle id="Ellipse_9-36" data-name="Ellipse 9" cx="3" cy="3" r="3" transform="translate(762 51)"/>
      </g>
      <g transform="translate(-588 12)">
        <circle id="Ellipse_9-37" data-name="Ellipse 9" cx="3" cy="3" r="3" transform="translate(762 51)"/>
      </g>
      <g transform="translate(-559 12)">
        <circle id="Ellipse_9-38" data-name="Ellipse 9" cx="3" cy="3" r="3" transform="translate(762 51)"/>
      </g>
      <g transform="translate(-530 12)">
        <circle id="Ellipse_9-39" data-name="Ellipse 9" cx="3" cy="3" r="3" transform="translate(762 51)"/>
      </g>
      <g transform="translate(-501 12)">
        <circle id="Ellipse_9-40" data-name="Ellipse 9" cx="3" cy="3" r="3" transform="translate(762 51)"/>
      </g>
      <g transform="translate(-762 33)">
        <circle id="Ellipse_9-41" data-name="Ellipse 9" cx="3" cy="3" r="3" transform="translate(762 51)"/>
      </g>
      <g transform="translate(-733 33)">
        <circle id="Ellipse_9-42" data-name="Ellipse 9" cx="3" cy="3" r="3" transform="translate(762 51)"/>
      </g>
      <g transform="translate(-704 33)">
        <circle id="Ellipse_9-43" data-name="Ellipse 9" cx="3" cy="3" r="3" transform="translate(762 51)"/>
      </g>
      <g transform="translate(-675 33)">
        <circle id="Ellipse_9-44" data-name="Ellipse 9" cx="3" cy="3" r="3" transform="translate(762 51)"/>
      </g>
      <g transform="translate(-646 33)">
        <circle id="Ellipse_9-45" data-name="Ellipse 9" cx="3" cy="3" r="3" transform="translate(762 51)"/>
      </g>
      <g transform="translate(-617 33)">
        <circle id="Ellipse_9-46" data-name="Ellipse 9" cx="3" cy="3" r="3" transform="translate(762 51)"/>
      </g>
      <g transform="translate(-588 33)">
        <circle id="Ellipse_9-47" data-name="Ellipse 9" cx="3" cy="3" r="3" transform="translate(762 51)"/>
      </g>
      <g transform="translate(-559 33)">
        <circle id="Ellipse_9-48" data-name="Ellipse 9" cx="3" cy="3" r="3" transform="translate(762 51)"/>
      </g>
      <g transform="translate(-530 33)">
        <circle id="Ellipse_9-49" data-name="Ellipse 9" cx="3" cy="3" r="3" transform="translate(762 51)"/>
      </g>
      <g transform="translate(-501 33)">
        <circle id="Ellipse_9-50" data-name="Ellipse 9" cx="3" cy="3" r="3" transform="translate(762 51)"/>
      </g>
      <g transform="translate(-762 54)">
        <circle id="Ellipse_9-51" data-name="Ellipse 9" cx="3" cy="3" r="3" transform="translate(762 51)"/>
      </g>
      <g transform="translate(-733 54)">
        <circle id="Ellipse_9-52" data-name="Ellipse 9" cx="3" cy="3" r="3" transform="translate(762 51)"/>
      </g>
      <g transform="translate(-704 54)">
        <circle id="Ellipse_9-53" data-name="Ellipse 9" cx="3" cy="3" r="3" transform="translate(762 51)"/>
      </g>
      <g transform="translate(-675 54)">
        <circle id="Ellipse_9-54" data-name="Ellipse 9" cx="3" cy="3" r="3" transform="translate(762 51)"/>
      </g>
      <g transform="translate(-646 54)">
        <circle id="Ellipse_9-55" data-name="Ellipse 9" cx="3" cy="3" r="3" transform="translate(762 51)"/>
      </g>
      <g transform="translate(-617 54)">
        <circle id="Ellipse_9-56" data-name="Ellipse 9" cx="3" cy="3" r="3" transform="translate(762 51)"/>
      </g>
      <g transform="translate(-588 54)">
        <circle id="Ellipse_9-57" data-name="Ellipse 9" cx="3" cy="3" r="3" transform="translate(762 51)"/>
      </g>
      <g transform="translate(-559 54)">
        <circle id="Ellipse_9-58" data-name="Ellipse 9" cx="3" cy="3" r="3" transform="translate(762 51)"/>
      </g>
      <g transform="translate(-530 54)">
        <circle id="Ellipse_9-59" data-name="Ellipse 9" cx="3" cy="3" r="3" transform="translate(762 51)"/>
      </g>
      <g transform="translate(-501 54)">
        <circle id="Ellipse_9-60" data-name="Ellipse 9" cx="3" cy="3" r="3" transform="translate(762 51)"/>
      </g>
      <g transform="translate(-762 75)">
        <circle id="Ellipse_9-61" data-name="Ellipse 9" cx="3" cy="3" r="3" transform="translate(762 51)"/>
      </g>
      <g transform="translate(-733 75)">
        <circle id="Ellipse_9-62" data-name="Ellipse 9" cx="3" cy="3" r="3" transform="translate(762 51)"/>
      </g>
      <g transform="translate(-704 75)">
        <circle id="Ellipse_9-63" data-name="Ellipse 9" cx="3" cy="3" r="3" transform="translate(762 51)"/>
      </g>
      <g transform="translate(-675 75)">
        <circle id="Ellipse_9-64" data-name="Ellipse 9" cx="3" cy="3" r="3" transform="translate(762 51)"/>
      </g>
      <g transform="translate(-646 75)">
        <circle id="Ellipse_9-65" data-name="Ellipse 9" cx="3" cy="3" r="3" transform="translate(762 51)"/>
      </g>
      <g transform="translate(-617 75)">
        <circle id="Ellipse_9-66" data-name="Ellipse 9" cx="3" cy="3" r="3" transform="translate(762 51)"/>
      </g>
      <g transform="translate(-588 75)">
        <circle id="Ellipse_9-67" data-name="Ellipse 9" cx="3" cy="3" r="3" transform="translate(762 51)"/>
      </g>
      <g transform="translate(-559 75)">
        <circle id="Ellipse_9-68" data-name="Ellipse 9" cx="3" cy="3" r="3" transform="translate(762 51)"/>
      </g>
      <g transform="translate(-530 75)">
        <circle id="Ellipse_9-69" data-name="Ellipse 9" cx="3" cy="3" r="3" transform="translate(762 51)"/>
      </g>
      <g transform="translate(-501 75)">
        <circle id="Ellipse_9-70" data-name="Ellipse 9" cx="3" cy="3" r="3" transform="translate(762 51)"/>
      </g>
      <g transform="translate(-762 96)">
        <circle id="Ellipse_9-71" data-name="Ellipse 9" cx="3" cy="3" r="3" transform="translate(762 51)"/>
      </g>
      <g transform="translate(-733 96)">
        <circle id="Ellipse_9-72" data-name="Ellipse 9" cx="3" cy="3" r="3" transform="translate(762 51)"/>
      </g>
      <g transform="translate(-704 96)">
        <circle id="Ellipse_9-73" data-name="Ellipse 9" cx="3" cy="3" r="3" transform="translate(762 51)"/>
      </g>
      <g transform="translate(-675 96)">
        <circle id="Ellipse_9-74" data-name="Ellipse 9" cx="3" cy="3" r="3" transform="translate(762 51)"/>
      </g>
      <g transform="translate(-646 96)">
        <circle id="Ellipse_9-75" data-name="Ellipse 9" cx="3" cy="3" r="3" transform="translate(762 51)"/>
      </g>
      <g transform="translate(-617 96)">
        <circle id="Ellipse_9-76" data-name="Ellipse 9" cx="3" cy="3" r="3" transform="translate(762 51)"/>
      </g>
      <g transform="translate(-588 96)">
        <circle id="Ellipse_9-77" data-name="Ellipse 9" cx="3" cy="3" r="3" transform="translate(762 51)"/>
      </g>
      <g transform="translate(-559 96)">
        <circle id="Ellipse_9-78" data-name="Ellipse 9" cx="3" cy="3" r="3" transform="translate(762 51)"/>
      </g>
      <g transform="translate(-530 96)">
        <circle id="Ellipse_9-79" data-name="Ellipse 9" cx="3" cy="3" r="3" transform="translate(762 51)"/>
      </g>
      <g transform="translate(-501 96)">
        <circle id="Ellipse_9-80" data-name="Ellipse 9" cx="3" cy="3" r="3" transform="translate(762 51)"/>
      </g>
    </g>
  </g>
</svg>
