<svg xmlns="http://www.w3.org/2000/svg" width="25" height="25" viewBox="0 0 25 25">
  <g id="Group_5" data-name="Group 5" transform="translate(-275 -439)">
    <path id="Path_3" data-name="Path 3" d="M.4,0H10.753a.456.456,0,0,1,.4.5V13.345a.456.456,0,0,1-.4.5H.4a.456.456,0,0,1-.4-.5V.5A.456.456,0,0,1,.4,0Zm0,0" transform="translate(275 439)" fill="#fff"/>
    <path id="Path_4" data-name="Path 4" d="M249.4,0h10.353a.376.376,0,0,1,.4.345V9.264a.376.376,0,0,1-.4.345H249.4a.376.376,0,0,1-.4-.345V.345A.376.376,0,0,1,249.4,0Zm0,0" transform="translate(39.846 439)" fill="#fff"/>
    <path id="Path_5" data-name="Path 5" d="M.4,249H10.753a.37.37,0,0,1,.4.329v8.495a.37.37,0,0,1-.4.328H.4a.37.37,0,0,1-.4-.328v-8.495A.37.37,0,0,1,.4,249Zm0,0" transform="translate(275 205.848)" fill="#fff"/>
    <path id="Path_6" data-name="Path 6" d="M249.4,249h10.353a.446.446,0,0,1,.4.48V261.9a.446.446,0,0,1-.4.48H249.4a.446.446,0,0,1-.4-.48V249.48A.446.446,0,0,1,249.4,249Zm0,0" transform="translate(39.846 201.616)" fill="#fff"/>
  </g>
</svg>
