<svg xmlns="http://www.w3.org/2000/svg" width="10.637" height="15.017" viewBox="0 0 10.637 15.017">
  <g id="lock" transform="translate(-74.666)">
    <g id="Group_49" data-name="Group 49" transform="translate(74.666)">
      <path id="Path_116" data-name="Path 116" d="M84.052,6.289V4.067a4.067,4.067,0,0,0-8.134,0V6.289a1.566,1.566,0,0,0-1.251,1.532v5.631a1.566,1.566,0,0,0,1.564,1.564h7.509A1.566,1.566,0,0,0,85.3,13.453V7.821A1.566,1.566,0,0,0,84.052,6.289Zm-3.373,4.8.242,1.689a.31.31,0,0,1-.073.249.315.315,0,0,1-.237.108H79.359a.312.312,0,0,1-.31-.357l.242-1.689a1.565,1.565,0,1,1,1.388,0Zm1.5-4.837h-4.38V4.067a2.19,2.19,0,0,1,4.38,0Z" transform="translate(-74.666)"/>
    </g>
  </g>
</svg>
