<svg xmlns="http://www.w3.org/2000/svg" xmlns:xlink="http://www.w3.org/1999/xlink" width="141" height="125" viewBox="0 0 141 125">
  <defs>
    <clipPath id="clip-path">
      <rect width="141" height="125" fill="none"/>
    </clipPath>
  </defs>
  <g id="Repeat_Grid_3" data-name="Repeat Grid 3" opacity="0.17" clip-path="url(#clip-path)">
    <g transform="translate(-762 -51)">
      <circle id="Ellipse_9" data-name="Ellipse 9" cx="3" cy="3" r="3" transform="translate(762 51)" fill="#fff"/>
    </g>
    <g transform="translate(-733 -51)">
      <circle id="Ellipse_9-2" data-name="Ellipse 9" cx="3" cy="3" r="3" transform="translate(762 51)" fill="#fff"/>
    </g>
    <g transform="translate(-704 -51)">
      <circle id="Ellipse_9-3" data-name="Ellipse 9" cx="3" cy="3" r="3" transform="translate(762 51)" fill="#fff"/>
    </g>
    <g transform="translate(-675 -51)">
      <circle id="Ellipse_9-4" data-name="Ellipse 9" cx="3" cy="3" r="3" transform="translate(762 51)" fill="#fff"/>
    </g>
    <g transform="translate(-646 -51)">
      <circle id="Ellipse_9-5" data-name="Ellipse 9" cx="3" cy="3" r="3" transform="translate(762 51)" fill="#fff"/>
    </g>
    <g transform="translate(-762 -30)">
      <circle id="Ellipse_9-6" data-name="Ellipse 9" cx="3" cy="3" r="3" transform="translate(762 51)" fill="#fff"/>
    </g>
    <g transform="translate(-733 -30)">
      <circle id="Ellipse_9-7" data-name="Ellipse 9" cx="3" cy="3" r="3" transform="translate(762 51)" fill="#fff"/>
    </g>
    <g transform="translate(-704 -30)">
      <circle id="Ellipse_9-8" data-name="Ellipse 9" cx="3" cy="3" r="3" transform="translate(762 51)" fill="#fff"/>
    </g>
    <g transform="translate(-675 -30)">
      <circle id="Ellipse_9-9" data-name="Ellipse 9" cx="3" cy="3" r="3" transform="translate(762 51)" fill="#fff"/>
    </g>
    <g transform="translate(-646 -30)">
      <circle id="Ellipse_9-10" data-name="Ellipse 9" cx="3" cy="3" r="3" transform="translate(762 51)" fill="#fff"/>
    </g>
    <g transform="translate(-762 -9)">
      <circle id="Ellipse_9-11" data-name="Ellipse 9" cx="3" cy="3" r="3" transform="translate(762 51)" fill="#fff"/>
    </g>
    <g transform="translate(-733 -9)">
      <circle id="Ellipse_9-12" data-name="Ellipse 9" cx="3" cy="3" r="3" transform="translate(762 51)" fill="#fff"/>
    </g>
    <g transform="translate(-704 -9)">
      <circle id="Ellipse_9-13" data-name="Ellipse 9" cx="3" cy="3" r="3" transform="translate(762 51)" fill="#fff"/>
    </g>
    <g transform="translate(-675 -9)">
      <circle id="Ellipse_9-14" data-name="Ellipse 9" cx="3" cy="3" r="3" transform="translate(762 51)" fill="#fff"/>
    </g>
    <g transform="translate(-646 -9)">
      <circle id="Ellipse_9-15" data-name="Ellipse 9" cx="3" cy="3" r="3" transform="translate(762 51)" fill="#fff"/>
    </g>
    <g transform="translate(-762 12)">
      <circle id="Ellipse_9-16" data-name="Ellipse 9" cx="3" cy="3" r="3" transform="translate(762 51)" fill="#fff"/>
    </g>
    <g transform="translate(-733 12)">
      <circle id="Ellipse_9-17" data-name="Ellipse 9" cx="3" cy="3" r="3" transform="translate(762 51)" fill="#fff"/>
    </g>
    <g transform="translate(-704 12)">
      <circle id="Ellipse_9-18" data-name="Ellipse 9" cx="3" cy="3" r="3" transform="translate(762 51)" fill="#fff"/>
    </g>
    <g transform="translate(-675 12)">
      <circle id="Ellipse_9-19" data-name="Ellipse 9" cx="3" cy="3" r="3" transform="translate(762 51)" fill="#fff"/>
    </g>
    <g transform="translate(-646 12)">
      <circle id="Ellipse_9-20" data-name="Ellipse 9" cx="3" cy="3" r="3" transform="translate(762 51)" fill="#fff"/>
    </g>
    <g transform="translate(-762 33)">
      <circle id="Ellipse_9-21" data-name="Ellipse 9" cx="3" cy="3" r="3" transform="translate(762 51)" fill="#fff"/>
    </g>
    <g transform="translate(-733 33)">
      <circle id="Ellipse_9-22" data-name="Ellipse 9" cx="3" cy="3" r="3" transform="translate(762 51)" fill="#fff"/>
    </g>
    <g transform="translate(-704 33)">
      <circle id="Ellipse_9-23" data-name="Ellipse 9" cx="3" cy="3" r="3" transform="translate(762 51)" fill="#fff"/>
    </g>
    <g transform="translate(-675 33)">
      <circle id="Ellipse_9-24" data-name="Ellipse 9" cx="3" cy="3" r="3" transform="translate(762 51)" fill="#fff"/>
    </g>
    <g transform="translate(-646 33)">
      <circle id="Ellipse_9-25" data-name="Ellipse 9" cx="3" cy="3" r="3" transform="translate(762 51)" fill="#fff"/>
    </g>
    <g transform="translate(-762 54)">
      <circle id="Ellipse_9-26" data-name="Ellipse 9" cx="3" cy="3" r="3" transform="translate(762 51)" fill="#fff"/>
    </g>
    <g transform="translate(-733 54)">
      <circle id="Ellipse_9-27" data-name="Ellipse 9" cx="3" cy="3" r="3" transform="translate(762 51)" fill="#fff"/>
    </g>
    <g transform="translate(-704 54)">
      <circle id="Ellipse_9-28" data-name="Ellipse 9" cx="3" cy="3" r="3" transform="translate(762 51)" fill="#fff"/>
    </g>
    <g transform="translate(-675 54)">
      <circle id="Ellipse_9-29" data-name="Ellipse 9" cx="3" cy="3" r="3" transform="translate(762 51)" fill="#fff"/>
    </g>
    <g transform="translate(-646 54)">
      <circle id="Ellipse_9-30" data-name="Ellipse 9" cx="3" cy="3" r="3" transform="translate(762 51)" fill="#fff"/>
    </g>
  </g>
</svg>
