<svg xmlns="http://www.w3.org/2000/svg" width="20.857" height="25" viewBox="0 0 20.857 25">
  <g id="about-fill" transform="translate(0 0)">
    <path id="Path_10" data-name="Path 10" d="M92.922,12.4a5.56,5.56,0,0,0,4.165-1.816A6.162,6.162,0,0,0,98.813,6.2a6.163,6.163,0,0,0-1.726-4.384,5.683,5.683,0,0,0-8.33,0A6.162,6.162,0,0,0,87.032,6.2a6.162,6.162,0,0,0,1.726,4.384A5.561,5.561,0,0,0,92.922,12.4Zm0,0" transform="translate(-82.656 0)" fill="#fff"/>
    <path id="Path_11" data-name="Path 11" d="M20.807,254.676a15.746,15.746,0,0,0-.2-1.627,13.132,13.132,0,0,0-.389-1.635,8.2,8.2,0,0,0-.653-1.525,5.74,5.74,0,0,0-.985-1.321,4.325,4.325,0,0,0-1.414-.915,4.763,4.763,0,0,0-1.805-.336,1.8,1.8,0,0,0-.979.427c-.293.2-.636.425-1.019.677a5.759,5.759,0,0,1-1.319.6,4.982,4.982,0,0,1-3.227,0,5.747,5.747,0,0,1-1.318-.6c-.379-.25-.723-.477-1.02-.677a1.8,1.8,0,0,0-.978-.427,4.758,4.758,0,0,0-1.805.337,4.322,4.322,0,0,0-1.414.915,5.74,5.74,0,0,0-.984,1.321,8.218,8.218,0,0,0-.653,1.525,13.164,13.164,0,0,0-.388,1.635,15.69,15.69,0,0,0-.2,1.627c-.033.493-.05,1-.05,1.52a4.342,4.342,0,0,0,1.233,3.234,4.365,4.365,0,0,0,3.177,1.193H16.447a4.169,4.169,0,0,0,4.41-4.427c0-.519-.017-1.03-.051-1.521Zm0,0" transform="translate(0 -235.624)" fill="#fff"/>
  </g>
</svg>
