<svg id="contact-fill" xmlns="http://www.w3.org/2000/svg" width="25" height="25" viewBox="0 0 25 25">
  <path id="Path_12" data-name="Path 12" d="M214.431,206.111a8.345,8.345,0,0,0-4.577-7.431,11.349,11.349,0,0,1-11.174,11.174,8.323,8.323,0,0,0,11.665,3.42l4.05,1.12-1.12-4.05a8.29,8.29,0,0,0,1.157-4.233Zm0,0" transform="translate(-189.431 -189.431)" fill="#fff"/>
  <path id="Path_13" data-name="Path 13" d="M19.656,9.828a9.828,9.828,0,1,0-18.293,5L.036,19.62l4.8-1.327A9.83,9.83,0,0,0,19.656,9.828ZM8.32,7.541H6.812a3.016,3.016,0,1,1,5.052,2.226l-1.281,1.173v1.176H9.074v-1.84l1.771-1.621a1.493,1.493,0,0,0,.491-1.113,1.508,1.508,0,0,0-3.016,0Zm.754,6.083h1.508v1.508H9.074Zm0,0" fill="#fff"/>
</svg>
